HIERARCHY
ROOT mixamorig:Hips
{
	OFFSET 0.000000 201.639420 0.000000
	CHANNELS 6 Xposition Yposition Zposition Xrotation Yrotation Zrotation
	JOINT mixamorig:Spine
	{
		OFFSET 0.006200 19.524994 -2.481800
		CHANNELS 3 Xrotation Yrotation Zrotation
		JOINT mixamorig:Spine1
		{
			OFFSET -0.000900 22.835007 -2.825400
			CHANNELS 3 Xrotation Yrotation Zrotation
			JOINT mixamorig:Spine2
			{
				OFFSET -0.020600 26.552490 -3.193300
				CHANNELS 3 Xrotation Yrotation Zrotation
				JOINT mixamorig:Neck
				{
					OFFSET -0.060000 30.701813 1.352200
					CHANNELS 3 Xrotation Yrotation Zrotation
					JOINT mixamorig:Head
					{
						OFFSET -0.087200 22.547607 3.670900
						CHANNELS 3 Xrotation Yrotation Zrotation
						JOINT mixamorig:HeadTop_End
						{
							OFFSET -0.830600 40.355194 7.893500
							CHANNELS 3 Xrotation Yrotation Zrotation
							End Site
							{
								OFFSET 0.000000 30.592346 0.000000
							}
						}
						JOINT mixamorig:RightEye
						{
							OFFSET -6.302100 18.118591 16.197100
							CHANNELS 3 Xrotation Yrotation Zrotation
							End Site
							{
								OFFSET 0.000000 30.592346 0.000000
							}
						}
						JOINT mixamorig:LeftEye
						{
							OFFSET 6.741500 18.382690 16.401899
							CHANNELS 3 Xrotation Yrotation Zrotation
							End Site
							{
								OFFSET 0.000000 30.592346 0.000000
							}
						}
					}
				}
				JOINT mixamorig:LeftShoulder
				{
					OFFSET 11.924900 18.230499 1.425400
					CHANNELS 3 Xrotation Yrotation Zrotation
					JOINT mixamorig:LeftArm
					{
						OFFSET 25.435989 -0.697632 -5.229300
						CHANNELS 3 Xrotation Yrotation Zrotation
						JOINT mixamorig:LeftForeArm
						{
							OFFSET 54.684776 0.000000 0.000000
							CHANNELS 3 Xrotation Yrotation Zrotation
							JOINT mixamorig:LeftHand
							{
								OFFSET 55.098175 0.000000 0.000000
								CHANNELS 3 Xrotation Yrotation Zrotation
								JOINT mixamorig:LeftHandMiddle1
								{
									OFFSET 23.369751 0.000000 0.000000
									CHANNELS 3 Xrotation Yrotation Zrotation
									JOINT mixamorig:LeftHandMiddle2
									{
										OFFSET 6.378677 0.000000 0.000000
										CHANNELS 3 Xrotation Yrotation Zrotation
										JOINT mixamorig:LeftHandMiddle3
										{
											OFFSET 6.148331 0.000000 0.000000
											CHANNELS 3 Xrotation Yrotation Zrotation
											JOINT mixamorig:LeftHandMiddle4
											{
												OFFSET 6.582504 0.000000 0.000000
												CHANNELS 3 Xrotation Yrotation Zrotation
												End Site
												{
													OFFSET -1.168900 6.395691 1.028606
												}
											}
										}
									}
								}
								JOINT mixamorig:LeftHandThumb1
								{
									OFFSET 7.235672 -3.848206 5.434273
									CHANNELS 3 Xrotation Yrotation Zrotation
									JOINT mixamorig:LeftHandThumb2
									{
										OFFSET 6.568451 -3.792297 3.792300
										CHANNELS 3 Xrotation Yrotation Zrotation
										JOINT mixamorig:LeftHandThumb3
										{
											OFFSET 6.063080 -3.500519 3.500518
											CHANNELS 3 Xrotation Yrotation Zrotation
											JOINT mixamorig:LeftHandThumb4
											{
												OFFSET 4.793182 -2.767334 2.767349
												CHANNELS 3 Xrotation Yrotation Zrotation
												End Site
												{
													OFFSET 0.101639 6.054260 1.275483
												}
											}
										}
									}
								}
								JOINT mixamorig:LeftHandIndex1
								{
									OFFSET 23.101074 -0.309540 4.992809
									CHANNELS 3 Xrotation Yrotation Zrotation
									JOINT mixamorig:LeftHandIndex2
									{
										OFFSET 6.226883 0.000000 0.000000
										CHANNELS 3 Xrotation Yrotation Zrotation
										JOINT mixamorig:LeftHandIndex3
										{
											OFFSET 6.094330 0.000000 0.000000
											CHANNELS 3 Xrotation Yrotation Zrotation
											JOINT mixamorig:LeftHandIndex4
											{
												OFFSET 5.482605 0.000000 0.000000
												CHANNELS 3 Xrotation Yrotation Zrotation
												End Site
												{
													OFFSET -1.427902 5.233032 0.797164
												}
											}
										}
									}
								}
								JOINT mixamorig:LeftHandRing1
								{
									OFFSET 22.299240 0.021149 -3.964172
									CHANNELS 3 Xrotation Yrotation Zrotation
									JOINT mixamorig:LeftHandRing2
									{
										OFFSET 6.321869 0.000000 0.000000
										CHANNELS 3 Xrotation Yrotation Zrotation
										JOINT mixamorig:LeftHandRing3
										{
											OFFSET 5.899796 0.000000 0.000000
											CHANNELS 3 Xrotation Yrotation Zrotation
											JOINT mixamorig:LeftHandRing4
											{
												OFFSET 6.517899 0.000000 0.000000
												CHANNELS 3 Xrotation Yrotation Zrotation
												End Site
												{
													OFFSET -1.637299 6.232208 0.980890
												}
											}
										}
									}
								}
								JOINT mixamorig:LeftHandPinky1
								{
									OFFSET 20.463791 -0.302338 -8.562233
									CHANNELS 3 Xrotation Yrotation Zrotation
									JOINT mixamorig:LeftHandPinky2
									{
										OFFSET 6.908646 0.000000 0.000000
										CHANNELS 3 Xrotation Yrotation Zrotation
										JOINT mixamorig:LeftHandPinky3
										{
											OFFSET 4.622849 0.000000 0.000000
											CHANNELS 3 Xrotation Yrotation Zrotation
											JOINT mixamorig:LeftHandPinky4
											{
												OFFSET 5.216080 0.000000 0.000000
												CHANNELS 3 Xrotation Yrotation Zrotation
												End Site
												{
													OFFSET -0.606308 5.116241 0.814926
												}
											}
										}
									}
								}
							}
						}
					}
				}
				JOINT mixamorig:RightShoulder
				{
					OFFSET -12.001300 18.284088 1.348900
					CHANNELS 3 Xrotation Yrotation Zrotation
					JOINT mixamorig:RightArm
					{
						OFFSET -25.308500 -0.751312 -5.164599
						CHANNELS 3 Xrotation Yrotation Zrotation
						JOINT mixamorig:RightForeArm
						{
							OFFSET -54.684429 0.000000 0.000000
							CHANNELS 3 Xrotation Yrotation Zrotation
							JOINT mixamorig:RightHand
							{
								OFFSET -55.150291 0.000000 0.000000
								CHANNELS 3 Xrotation Yrotation Zrotation
								JOINT mixamorig:RightHandMiddle1
								{
									OFFSET -23.317566 0.000000 0.000000
									CHANNELS 3 Xrotation Yrotation Zrotation
									JOINT mixamorig:RightHandMiddle2
									{
										OFFSET -6.378403 0.000000 0.000000
										CHANNELS 3 Xrotation Yrotation Zrotation
										JOINT mixamorig:RightHandMiddle3
										{
											OFFSET -6.148193 0.000000 0.000000
											CHANNELS 3 Xrotation Yrotation Zrotation
											JOINT mixamorig:RightHandMiddle4
											{
												OFFSET -6.583389 0.000000 0.000000
												CHANNELS 3 Xrotation Yrotation Zrotation
												End Site
												{
													OFFSET 1.171692 6.395905 1.029786
												}
											}
										}
									}
								}
								JOINT mixamorig:RightHandThumb1
								{
									OFFSET -7.190521 -3.860474 5.435846
									CHANNELS 3 Xrotation Yrotation Zrotation
									JOINT mixamorig:RightHandThumb2
									{
										OFFSET -6.567429 -3.791718 3.791708
										CHANNELS 3 Xrotation Yrotation Zrotation
										JOINT mixamorig:RightHandThumb3
										{
											OFFSET -6.062469 -3.500153 3.500166
											CHANNELS 3 Xrotation Yrotation Zrotation
											JOINT mixamorig:RightHandThumb4
											{
												OFFSET -4.792618 -2.767029 2.767022
												CHANNELS 3 Xrotation Yrotation Zrotation
												End Site
												{
													OFFSET -0.100327 6.053253 1.276754
												}
											}
										}
									}
								}
								JOINT mixamorig:RightHandIndex1
								{
									OFFSET -23.048981 -0.310791 4.992554
									CHANNELS 3 Xrotation Yrotation Zrotation
									JOINT mixamorig:RightHandIndex2
									{
										OFFSET -6.227539 0.000000 0.000000
										CHANNELS 3 Xrotation Yrotation Zrotation
										JOINT mixamorig:RightHandIndex3
										{
											OFFSET -6.095047 0.000000 0.000000
											CHANNELS 3 Xrotation Yrotation Zrotation
											JOINT mixamorig:RightHandIndex4
											{
												OFFSET -5.484772 0.000000 0.000000
												CHANNELS 3 Xrotation Yrotation Zrotation
												End Site
												{
													OFFSET 1.420593 5.237305 0.797056
												}
											}
										}
									}
								}
								JOINT mixamorig:RightHandRing1
								{
									OFFSET -22.246323 0.020569 -3.963762
									CHANNELS 3 Xrotation Yrotation Zrotation
									JOINT mixamorig:RightHandRing2
									{
										OFFSET -6.322128 0.000000 0.000000
										CHANNELS 3 Xrotation Yrotation Zrotation
										JOINT mixamorig:RightHandRing3
										{
											OFFSET -5.900024 0.000000 0.000000
											CHANNELS 3 Xrotation Yrotation Zrotation
											JOINT mixamorig:RightHandRing4
											{
												OFFSET -6.518356 0.000000 0.000000
												CHANNELS 3 Xrotation Yrotation Zrotation
												End Site
												{
													OFFSET 1.636398 6.232697 0.982186
												}
											}
										}
									}
								}
								JOINT mixamorig:RightHandPinky1
								{
									OFFSET -20.411011 -0.303314 -8.561701
									CHANNELS 3 Xrotation Yrotation Zrotation
									JOINT mixamorig:RightHandPinky2
									{
										OFFSET -6.907349 0.000000 0.000000
										CHANNELS 3 Xrotation Yrotation Zrotation
										JOINT mixamorig:RightHandPinky3
										{
											OFFSET -4.623840 0.000000 0.000000
											CHANNELS 3 Xrotation Yrotation Zrotation
											JOINT mixamorig:RightHandPinky4
											{
												OFFSET -5.218353 0.000000 0.000000
												CHANNELS 3 Xrotation Yrotation Zrotation
												End Site
												{
													OFFSET 0.602097 5.118835 0.816273
												}
											}
										}
									}
								}
							}
						}
					}
				}
			}
		}
	}
	JOINT mixamorig:LeftUpLeg
	{
		OFFSET 18.168400 -13.561905 -0.039000
		CHANNELS 3 Xrotation Yrotation Zrotation
		JOINT mixamorig:LeftLeg
		{
			OFFSET 0.577358 -80.825211 -3.695000
			CHANNELS 3 Xrotation Yrotation Zrotation
			JOINT mixamorig:LeftFoot
			{
				OFFSET -0.577356 -83.370262 -6.520700
				CHANNELS 3 Xrotation Yrotation Zrotation
				JOINT mixamorig:LeftToeBase
				{
					OFFSET 0.750401 -20.798306 25.135401
					CHANNELS 3 Xrotation Yrotation Zrotation
					JOINT mixamorig:LeftToe_End
					{
						OFFSET -0.000500 0.001200 19.917799
						CHANNELS 3 Xrotation Yrotation Zrotation
						End Site
						{
							OFFSET 0.000000 19.917805 0.000000
						}
					}
				}
			}
		}
	}
	JOINT mixamorig:RightUpLeg
	{
		OFFSET -18.162500 -13.585098 -0.041000
		CHANNELS 3 Xrotation Yrotation Zrotation
		JOINT mixamorig:RightLeg
		{
			OFFSET -0.595024 -80.945297 -3.631900
			CHANNELS 3 Xrotation Yrotation Zrotation
			JOINT mixamorig:RightFoot
			{
				OFFSET 0.595024 -83.218193 -6.561200
				CHANNELS 3 Xrotation Yrotation Zrotation
				JOINT mixamorig:RightToeBase
				{
					OFFSET -0.753601 -20.807106 25.115000
					CHANNELS 3 Xrotation Yrotation Zrotation
					JOINT mixamorig:RightToe_End
					{
						OFFSET 0.000299 0.001700 19.918200
						CHANNELS 3 Xrotation Yrotation Zrotation
						End Site
						{
							OFFSET 0.000000 19.918203 0.000000
						}
					}
				}
			}
		}
	}
}
MOTION
Frames: 5
Frame Time: 0.033333
-1.068684 187.221985 -11.983929 12.323470 -4.236186 1.488028 10.672559 -1.715375 -3.116347 2.284890 -0.209517 -0.448343 2.284380 -0.205562 -0.450844 6.753546 1.141587 1.005999 -30.631834 4.577411 3.489544 -0.000000 -0.000000 -0.000000 -0.000000 -0.000000 -0.000000 -0.000000 -0.000000 -0.000000 1.301313 -8.154057 7.188288 -38.511110 37.083197 -30.144377 0.000023 -59.980146 0.000029 -69.933733 13.733670 -9.810097 0.001015 0.141625 -5.940672 0.574379 2.757905 -23.526066 0.090091 1.112392 -9.259036 -0.000001 0.000001 -0.000000 -16.931853 11.782291 10.731047 4.444920 -3.014549 4.919564 9.815667 9.401401 -9.725750 -0.000002 -0.000004 -0.000001 -0.163500 -4.513767 -5.122558 0.358638 2.197297 -18.538399 0.075528 1.019111 -8.476490 0.000000 -0.000000 -0.000002 2.431731 8.622060 -18.900170 0.244204 1.821001 -15.274876 0.046443 0.800091 -6.645187 0.000000 -0.000001 0.000001 6.613939 12.771699 -32.417481 0.278731 -2.111405 -16.837432 0.028333 0.625620 -5.191290 0.000002 -0.000000 -0.000001 0.867069 10.796344 4.569426 -17.982928 -29.294060 36.211850 0.000013 52.886257 -0.000012 -67.168531 -7.998776 -5.240461 -0.289846 4.410659 4.369280 0.452778 -2.472563 20.752237 0.206831 -1.193185 9.983301 0.000003 0.000001 0.000002 -3.546011 -6.082347 -3.787763 9.593255 0.474857 -11.842173 14.839687 4.069255 5.924942 -0.000005 0.000002 0.000002 0.123849 7.998315 -0.882126 0.203094 -1.671511 13.854363 0.125658 -1.318491 10.886378 -0.000001 -0.000001 -0.000003 0.567849 -3.484845 12.251846 0.612581 -2.858429 24.186629 -0.058404 -0.865948 7.012405 0.000004 -0.000001 0.000001 2.711443 -6.857679 25.239444 0.514917 -2.630480 22.147341 0.049285 -0.828201 6.812357 0.000002 0.000001 0.000001 -39.234932 6.863795 8.379953 45.511596 -0.430604 -1.649905 -18.561463 0.566298 -3.219687 0.000025 -0.000001 0.000001 -0.000000 -0.000000 -0.000000 -40.207244 -2.950960 -9.795719 45.366099 -2.509796 1.594727 -16.855469 -0.995837 5.942486 -0.000053 0.000010 -0.000002 -0.000000 -0.000000 0.000000 
-0.734698 188.125732 -10.889130 12.060383 -4.662496 1.442574 10.454640 -1.433077 -2.696374 2.071831 -0.168459 -0.676619 2.071169 -0.171454 -0.678134 6.546255 0.566279 1.107818 -31.421725 1.677379 3.062771 0.000000 0.000000 -0.000000 0.000000 0.000000 -0.000000 0.000000 0.000000 -0.000000 1.374767 -8.661875 7.193446 -35.582530 35.410378 -31.298942 0.000028 -49.861897 0.000022 -70.323300 13.794073 -9.552429 -0.003802 0.567026 -6.259201 0.597347 2.809937 -23.998583 0.086244 1.088650 -9.059704 -0.000001 0.000000 0.000000 -16.363168 11.149632 11.352968 4.558501 -3.047923 4.892730 9.929811 9.413407 -9.701403 -0.000002 -0.000001 -0.000001 -0.232726 -4.193675 -5.563733 0.366303 2.219972 -18.736744 0.074651 1.013157 -8.426508 0.000001 -0.000001 -0.000002 2.449259 8.540748 -19.145959 0.248033 1.834947 -15.394702 0.044781 0.785720 -6.525352 0.000001 -0.000001 -0.000000 6.669287 12.567681 -33.128333 0.280030 -2.107102 -16.874643 0.027857 0.619983 -5.144544 -0.000005 -0.000000 -0.000002 0.804271 10.021359 5.080393 -18.061981 -29.549219 36.675268 -0.000002 52.815872 0.000002 -66.755428 -8.704282 -5.013352 -0.252248 4.317863 3.968867 0.463358 -2.500221 20.995634 0.204137 -1.196373 10.005946 -0.000001 0.000004 0.000005 -3.437205 -5.717675 -3.689635 9.789668 0.752212 -11.760659 14.821345 4.055677 5.903499 0.000001 -0.000001 0.000005 0.186527 7.825678 -1.399816 0.208869 -1.694698 14.050634 0.128231 -1.331976 10.999207 0.000002 -0.000001 0.000000 0.522062 -3.250759 12.272610 0.646974 -2.933752 24.867792 -0.045517 -0.855617 6.942303 -0.000000 -0.000002 -0.000001 2.425683 -6.359933 24.874673 0.532813 -2.674008 22.534454 0.047990 -0.817178 6.721292 0.000002 -0.000001 0.000000 -37.719737 7.062723 8.136097 44.055103 0.015614 -1.416316 -18.344847 0.591597 -3.378854 -0.000037 -0.000001 0.000002 -0.000000 0.000000 -0.000000 -38.741492 -2.984464 -9.553661 43.676734 -2.396691 1.373896 -16.379026 -1.008179 6.127019 -0.000011 -0.000007 0.000000 -0.000000 0.000000 -0.000000 
-0.413579 188.938873 -9.677574 11.631801 -5.295141 1.359979 10.202671 -1.060635 -2.170012 1.848607 -0.116159 -0.930271 1.847840 -0.125868 -0.931148 6.463826 0.178888 1.210599 -31.733380 -0.196225 2.725628 0.000000 -0.000001 0.000000 0.000000 -0.000001 0.000000 0.000000 -0.000001 0.000000 1.387879 -9.042553 6.364499 -34.158503 34.616249 -31.680822 -0.000015 -43.114616 -0.000005 -70.968780 12.689715 -9.787385 0.004780 0.790029 -6.667423 0.632489 2.887459 -24.705318 0.082435 1.064515 -8.857184 -0.000002 0.000000 -0.000000 -15.295591 9.058124 11.626051 5.004474 -3.205615 4.894489 9.994766 9.411888 -9.601427 0.000000 0.000003 -0.000001 -0.284263 -3.739704 -6.082111 0.379396 2.258176 -19.072140 0.073778 1.007394 -8.378199 -0.000004 0.000000 -0.000000 2.422616 8.266109 -19.530323 0.253416 1.854470 -15.562704 0.043264 0.772253 -6.413092 0.000003 0.000002 -0.000002 6.606558 12.218949 -33.794932 0.283055 -2.097204 -16.960422 0.027525 0.616438 -5.115082 -0.000001 -0.000000 0.000001 0.762645 9.433909 5.527756 -18.658074 -30.690465 35.438956 -0.000005 54.808798 0.000011 -66.265307 -9.311116 -5.859608 -0.223683 4.216339 3.714937 0.470067 -2.517557 21.148479 0.202089 -1.201182 10.042615 0.000004 0.000002 -0.000003 -3.440591 -5.426666 -3.591568 9.878153 0.794886 -11.735161 14.887582 4.090158 5.999964 0.000002 -0.000002 0.000005 0.214756 7.612390 -1.609118 0.214127 -1.715656 14.228180 0.130878 -1.345441 11.111766 0.000001 0.000000 -0.000001 0.477652 -3.034062 12.354674 0.676305 -2.996070 25.434416 -0.032481 -0.847487 6.889675 -0.000001 -0.000001 -0.000001 2.132824 -5.737029 24.973246 0.546532 -2.706798 22.826687 0.047066 -0.809184 6.655244 0.000000 -0.000003 -0.000003 -36.032349 7.315675 7.993057 42.733919 0.564888 -1.178888 -18.267520 0.630689 -3.587201 -0.000036 0.000001 0.000001 -0.000000 0.000000 0.000000 -37.127706 -2.975636 -9.172819 42.062699 -2.208706 1.044908 -15.968794 -1.027400 6.342717 0.000002 -0.000007 0.000001 -0.000000 -0.000002 -0.000000 
-0.207288 189.457840 -8.639141 11.206514 -5.922382 1.250126 9.955576 -0.874278 -1.787464 1.675838 -0.091150 -1.080200 1.675103 -0.104021 -1.081085 6.454023 0.025386 1.310544 -31.714798 -0.873041 2.584263 -0.000000 0.000000 -0.000000 -0.000000 0.000000 -0.000000 -0.000000 0.000000 -0.000000 1.310407 -8.984223 4.946242 -33.237429 35.427539 -32.332558 0.000012 -42.863156 0.000020 -71.867005 12.182894 -7.655068 0.015425 0.805698 -7.039752 0.666751 2.960670 -25.376822 0.079484 1.045360 -8.696560 0.000003 0.000001 0.000001 -14.346420 6.500898 11.400420 5.708325 -3.446801 4.884965 10.061402 9.379997 -9.579491 0.000002 -0.000001 -0.000002 -0.292724 -3.289015 -6.441837 0.392597 2.295970 -19.404209 0.073203 1.003543 -8.345991 -0.000001 0.000002 -0.000001 2.350456 7.886854 -19.908984 0.257815 1.870083 -15.697399 0.042161 0.762462 -6.331328 0.000001 0.000001 0.000001 6.474669 11.851759 -34.313054 0.285722 -2.088449 -17.036138 0.027401 0.614870 -5.102001 -0.000001 -0.000002 -0.000001 0.742519 8.985083 5.774569 -20.200235 -31.169992 33.047139 -0.000012 56.716006 0.000007 -66.124243 -9.561870 -6.565638 -0.203897 4.134312 3.566736 0.470469 -2.518707 21.158429 0.200798 -1.204741 10.069645 0.000003 -0.000003 0.000002 -3.607057 -5.315386 -3.529836 9.883243 0.721713 -11.734913 15.010830 4.157449 6.171893 -0.000001 0.000002 0.000003 0.212944 7.384579 -1.600121 0.217366 -1.728322 14.335462 0.132415 -1.353277 11.177238 0.000001 -0.000003 0.000002 0.430090 -2.839530 12.404665 0.691126 -3.027036 25.716552 -0.019926 -0.843085 6.866836 -0.000001 -0.000000 -0.000001 1.901088 -5.165854 25.427092 0.552158 -2.720131 22.945664 0.046539 -0.804712 6.618292 0.000004 -0.000002 -0.000000 -34.676273 7.566584 8.012749 41.894075 1.017833 -1.027332 -18.350415 0.669397 -3.768106 0.000020 -0.000000 -0.000002 -0.000000 0.000000 -0.000000 -35.831135 -2.940831 -8.774363 40.953743 -2.005448 0.732482 -15.749882 -1.048337 6.516406 -0.000045 -0.000000 0.000002 -0.000000 -0.000000 -0.000000 
-0.144527 189.646866 -7.961967 10.873823 -6.350513 1.162960 9.800999 -0.912902 -1.667164 1.581748 -0.097257 -1.095691 1.580842 -0.110090 -1.096842 6.422881 0.064947 1.397203 -31.534683 -0.605866 2.656521 -0.000000 0.000001 0.000000 -0.000000 0.000001 0.000000 -0.000000 0.000001 0.000000 1.160511 -8.223847 3.564107 -33.778414 36.134665 -32.198820 0.000008 -44.001291 0.000001 -72.383169 11.919854 -6.009867 0.012515 0.655509 -7.322419 0.689686 3.008501 -25.817362 0.077789 1.034254 -8.603485 -0.000002 -0.000003 -0.000002 -14.061429 4.395187 10.859075 6.463008 -3.689809 4.835682 10.184066 9.312509 -9.754571 0.000001 0.000001 -0.000001 -0.266922 -2.907321 -6.603493 0.401655 2.321507 -19.629291 0.072957 1.001652 -8.330275 -0.000003 -0.000001 0.000001 2.253163 7.510124 -20.182094 0.258944 1.874153 -15.732289 0.041613 0.757523 -6.290174 -0.000003 -0.000002 -0.000002 6.330364 11.549305 -34.644956 0.285733 -2.088506 -17.035638 0.027341 0.614387 -5.098076 -0.000002 -0.000000 0.000002 0.730432 8.643195 5.921440 -22.569175 -30.725626 30.507873 -0.000001 58.279586 -0.000010 -66.534109 -9.578731 -6.797865 -0.190021 4.080025 3.454703 0.465329 -2.505298 21.040377 0.200010 -1.205315 10.072950 0.000003 0.000000 -0.000002 -3.908937 -5.375621 -3.515333 9.897405 0.642561 -11.730757 15.165938 4.245074 6.386138 -0.000002 0.000001 0.000000 0.194293 7.177767 -1.548743 0.217584 -1.729167 14.342637 0.132242 -1.352266 11.168835 0.000001 -0.000000 -0.000002 0.380153 -2.662179 12.367603 0.688946 -3.022552 25.675789 -0.007557 -0.843466 6.881898 -0.000000 0.000001 0.000002 1.765378 -4.751891 26.043177 0.548862 -2.712316 22.875914 0.046425 -0.803669 6.609691 -0.000002 0.000001 0.000002 -33.869139 7.753763 8.111265 41.604103 1.272775 -0.956426 -18.533063 0.700398 -3.893038 -0.000014 -0.000002 0.000002 -0.000000 -0.000000 -0.000000 -35.066792 -2.900372 -8.489445 40.511051 -1.857822 0.514333 -15.752812 -1.068578 6.619135 -0.000022 -0.000015 0.000001 0.000000 0.000000 -0.000000 
